HIERARCHY
ROOT hip
{
	OFFSET 0.000000 0.000000 0.000000 
	CHANNELS 6 Xposition Yposition Zposition Xrotation Zrotation Yrotation
	JOINT abdomen
	{
		OFFSET 0.000000 3.402643 0.000000 
		CHANNELS 3 Xrotation Zrotation Yrotation
		JOINT chest
		{
			OFFSET 0.000000 8.438565 -0.680529 
			CHANNELS 3 Xrotation Zrotation Yrotation
			JOINT neck
			{
				OFFSET 0.000000 10.207942 -0.272212 
				CHANNELS 3 Xrotation Zrotation Yrotation
				JOINT head
				{
					OFFSET 0.000000 3.130431 0.000000 
					CHANNELS 3 Xrotation Zrotation Yrotation
					End Site
					{
						OFFSET 0.000000 3.130435 0.000000 
					}
				}
			}
			JOINT lCollar
			{
				OFFSET 3.470700 6.669187 -0.816635 
				CHANNELS 3 Yrotation Zrotation Xrotation
				JOINT lShldr
				{
					OFFSET 3.198488 0.000000 0.000000 
					CHANNELS 3 Zrotation Yrotation Xrotation
					JOINT lForeArm
					{
						OFFSET 10.139888 0.000000 0.000000 
						CHANNELS 3 Yrotation Zrotation Xrotation
						JOINT lHand
						{
							OFFSET 8.370511 0.000000 0.000000 
							CHANNELS 3 Zrotation Yrotation Xrotation
							End Site
							{
								OFFSET 4.083176 0.000000 0.000000 
							}
						}
					}
				}
			}
			JOINT rCollar
			{
				OFFSET -3.470700 6.669187 -0.816635 
				CHANNELS 3 Yrotation Zrotation Xrotation
				JOINT rShldr
				{
					OFFSET -3.198488 0.000000 0.000000 
					CHANNELS 3 Zrotation Yrotation Xrotation
					JOINT rForeArm
					{
						OFFSET -10.139888 0.000000 0.000000 
						CHANNELS 3 Yrotation Zrotation Xrotation
						JOINT rHand
						{
							OFFSET -8.370511 0.000000 0.000000 
							CHANNELS 3 Zrotation Yrotation Xrotation
							End Site
							{
								OFFSET -4.083176 0.000000 0.000000 
							}
						}
					}
				}
			}
		}
	}
	JOINT lThigh
	{
		OFFSET 5.308129 -1.633274 1.361059 
		CHANNELS 3 Xrotation Zrotation Yrotation
		JOINT lShin
		{
			OFFSET -2.041588 -20.007561 0.000000 
			CHANNELS 3 Xrotation Zrotation Yrotation
			JOINT lFoot
			{
				OFFSET 0.000000 -19.190928 -1.224953 
				CHANNELS 3 Xrotation Yrotation Zrotation
				End Site
				{
					OFFSET 0.000000 -2.449906 4.627600 
				}
			}
		}
	}
	JOINT rThigh
	{
		OFFSET -5.308129 -1.633274 1.361059 
		CHANNELS 3 Xrotation Zrotation Yrotation
		JOINT rShin
		{
			OFFSET 2.041588 -20.007561 0.000000 
			CHANNELS 3 Xrotation Zrotation Yrotation
			JOINT rFoot
			{
				OFFSET 0.000000 -19.190928 -1.224953 
				CHANNELS 3 Xrotation Yrotation Zrotation
				End Site
				{
					OFFSET 0.000000 -2.449906 4.627600 
				}
			}
		}
	}
}
MOTION
Frames: 8
Frame Time: 0.016667
-2.609247 52.205093 -20.121183 -7.498627 -13.689428 -48.103817 34.347813 4.918531 5.514534 2.281021 2.147163 2.911698 5.700768 -2.311327 -0.263052 13.237834 -14.060605 44.007900 -12.407529 -7.580257 -0.390926 -37.121784 5.727217 -7.928103 -102.137001 5.000000 6.691868 -21.389912 -18.884853 8.897891 8.739511 -1.206791 0.064709 82.270699 52.978840 45.000000 102.337204 2.344615 -0.101202 0.408945 7.114307 16.944845 -0.527978 24.594173 7.028292 23.231382 -5.469190 -2.612143 -0.648104 7.295447 -11.012017 21.795874 -6.689578 -12.350533 18.592146 3.258054 1.193786 -20.148626 -22.261259 9.367368 
-2.623008 52.203850 -20.126646 -7.542136 -13.722571 -48.163563 34.373539 4.973262 5.560757 2.290476 2.127632 2.911689 5.661750 -2.320983 -0.261592 13.218557 -14.025130 43.968376 -12.437508 -7.677783 -0.395955 -37.167538 5.864859 -8.002178 -101.846420 5.000000 6.515061 -21.295469 -18.892776 8.941658 8.758950 -1.119017 0.060173 82.359016 52.612263 45.000000 100.648994 2.647324 -0.120155 0.458083 7.446091 16.931425 -0.401070 24.593040 7.127128 23.203028 -5.459745 -2.617512 -0.646636 7.325101 -11.031988 21.819023 -6.708015 -12.295844 18.643936 3.244734 1.195750 -20.192259 -22.197060 9.354525 
-2.634104 52.199665 -20.138165 -7.558658 -13.750122 -48.191177 34.402119 5.053510 5.618768 2.252116 2.137378 2.921449 5.709971 -2.271246 -0.259246 13.235355 -14.005097 43.859550 -12.535923 -7.785057 -0.401486 -37.195850 6.026556 -8.079309 -101.501068 5.000000 6.306587 -21.268583 -18.841208 9.029016 8.817486 -1.060501 0.057149 82.389091 52.283638 45.000000 99.165962 2.921234 -0.144034 0.429276 7.554283 16.847139 -0.362155 24.631170 7.165515 23.216049 -5.450607 -2.588437 -0.650043 7.225822 -11.070389 21.817860 -6.707935 -12.255966 18.711418 3.256067 1.202024 -20.262907 -22.200447 9.317791 
-2.643422 52.193535 -20.153715 -7.553348 -13.771135 -48.218807 34.431713 5.142838 5.680233 2.175039 2.156885 2.950740 5.825976 -2.171774 -0.254551 13.307537 -13.986623 43.711426 -12.663716 -7.902087 -0.407519 -37.212410 6.199582 -8.126366 -101.099846 5.000000 6.074859 -21.288525 -18.754757 9.151553 8.905339 -1.021491 0.055132 82.369377 51.994701 45.000000 97.839119 3.185992 -0.168938 0.345444 7.503821 16.713205 -0.352112 24.668291 7.199451 23.234602 -5.458985 -2.582003 -0.648330 7.197064 -11.049788 21.791796 -6.689303 -12.210963 18.777969 3.268920 1.227436 -20.295967 -22.212912 9.256651 
-2.652757 52.187645 -20.169506 -7.552601 -13.801147 -48.237278 34.449970 5.227753 5.729772 2.137031 2.176391 2.970265 5.912893 -2.110923 -0.244013 13.358106 -13.970538 43.584103 -12.762156 -8.009362 -0.413047 -37.227005 6.325729 -8.187028 -100.655411 5.000000 5.822445 -21.327627 -18.677811 9.304103 8.983429 -0.982481 0.053116 82.374840 51.752239 45.000000 96.589394 3.383921 -0.172376 0.259560 7.483915 16.567465 -0.332372 24.704348 7.254517 23.221838 -5.430199 -2.545721 -0.672143 7.126459 -11.034795 21.759890 -6.659533 -12.183434 18.849461 3.258191 1.221361 -20.318661 -22.206701 9.211514 
-2.662144 52.182770 -20.186256 -7.585834 -13.832212 -48.225956 34.517021 5.326892 5.766689 2.196311 2.195911 2.950734 5.894380 -2.181429 -0.253091 13.327887 -13.960757 43.560909 -12.754319 -8.085226 -0.427870 -37.184952 6.251208 -8.206838 -100.010841 5.000000 5.449831 -21.446878 -18.634932 9.559098 9.002952 -0.972728 0.052612 82.460472 51.762333 45.000000 95.699234 3.387204 -0.134367 0.177547 7.541506 16.352625 -0.303290 24.724722 7.260474 23.243319 -5.420826 -2.566051 -0.648371 7.167511 -11.061119 21.766579 -6.641250 -12.197995 18.958931 3.257302 1.218810 -20.362453 -22.221807 9.215197 
-2.671534 52.177887 -20.203009 -7.621404 -13.865820 -48.203159 34.564232 5.400578 5.812890 2.265357 2.215430 2.940969 5.875899 -2.251935 -0.262167 13.288360 -13.955866 43.549324 -12.735457 -8.172999 -0.432405 -37.143948 6.184473 -8.233665 -99.380188 5.000000 5.085721 -21.566061 -18.591398 9.810807 9.022475 -0.962975 0.052108 82.545662 51.772167 45.000000 94.818901 3.389848 -0.098420 0.104565 7.595882 16.137690 -0.274274 24.753389 7.286892 23.252720 -5.420773 -2.586340 -0.593442 7.120837 -11.091405 21.767729 -6.639345 -12.208085 19.057072 3.265001 1.216859 -20.387594 -22.160784 9.261446 
-2.679943 52.172009 -20.219803 -7.667122 -13.875521 -48.111370 34.608276 5.511419 5.799653 2.324460 2.274041 2.873027 5.768097 -2.250477 -0.252518 13.314054 -14.055679 43.334526 -12.667776 -8.260782 -0.436940 -37.074726 6.052646 -8.218644 -98.488289 5.000000 4.601673 -21.520761 -18.663498 9.556282 9.051631 -0.993770 0.043978 82.663498 51.869995 45.000000 94.387871 3.254628 -0.069614 -0.046035 7.601426 15.673749 -0.303754 24.766565 7.223504 23.280712 -5.430415 -2.589801 -0.541015 7.112060 -11.106187 21.765585 -6.620946 -12.272537 19.155834 3.268858 1.214355 -20.440874 -22.220423 9.202139 
